<mxfile host="app.diagrams.net" modified="2023-05-01T11:34:56.447Z" agent="Mozilla/5.0 (Macintosh; Intel Mac OS X 10.15; rv:109.0) Gecko/20100101 Firefox/112.0" etag="G5LUfoLot-UESJ2QcdhT" version="21.2.3" type="github">
  <diagram name="Seite-1" id="Hbt2rodtzYYCRQm3xp8-">
    <mxGraphModel dx="662" dy="425" grid="0" gridSize="10" guides="1" tooltips="1" connect="1" arrows="1" fold="1" page="0" pageScale="1" pageWidth="827" pageHeight="1169" background="none" math="0" shadow="0">
      <root>
        <mxCell id="0" />
        <mxCell id="1" parent="0" />
        <mxCell id="A1a8XFo02_XYmCqBBSiT-8" value="" style="endArrow=diamondThin;html=1;rounded=0;labelBackgroundColor=none;fontColor=default;endFill=1;startArrow=diamondThin;startFill=0;strokeWidth=2;targetPerimeterSpacing=0;endSize=10;startSize=10;" edge="1" parent="1" source="A1a8XFo02_XYmCqBBSiT-65" target="A1a8XFo02_XYmCqBBSiT-72">
          <mxGeometry width="50" height="50" relative="1" as="geometry">
            <mxPoint x="706" y="581" as="sourcePoint" />
            <mxPoint x="756" y="531" as="targetPoint" />
          </mxGeometry>
        </mxCell>
        <mxCell id="A1a8XFo02_XYmCqBBSiT-19" value="Logbuch" style="swimlane;fontStyle=1;align=center;verticalAlign=top;childLayout=stackLayout;horizontal=1;startSize=29;horizontalStack=0;resizeParent=1;resizeParentMax=0;resizeLast=0;collapsible=1;marginBottom=0;whiteSpace=wrap;html=1;labelBackgroundColor=none;" vertex="1" parent="1">
          <mxGeometry x="657" y="114" width="200" height="401" as="geometry">
            <mxRectangle x="340" y="31" width="90" height="30" as="alternateBounds" />
          </mxGeometry>
        </mxCell>
        <mxCell id="A1a8XFo02_XYmCqBBSiT-20" value="&lt;div&gt;- Vorname: String&lt;/div&gt;&lt;div&gt;&lt;br&gt;&lt;/div&gt;" style="text;strokeColor=none;fillColor=none;align=left;verticalAlign=top;spacingLeft=4;spacingRight=4;overflow=hidden;rotatable=0;points=[[0,0.5],[1,0.5]];portConstraint=eastwest;whiteSpace=wrap;html=1;labelBackgroundColor=none;" vertex="1" parent="A1a8XFo02_XYmCqBBSiT-19">
          <mxGeometry y="29" width="200" height="26" as="geometry" />
        </mxCell>
        <mxCell id="A1a8XFo02_XYmCqBBSiT-29" value="- Nachname: String" style="text;strokeColor=none;fillColor=none;align=left;verticalAlign=top;spacingLeft=4;spacingRight=4;overflow=hidden;rotatable=0;points=[[0,0.5],[1,0.5]];portConstraint=eastwest;whiteSpace=wrap;html=1;labelBackgroundColor=none;" vertex="1" parent="A1a8XFo02_XYmCqBBSiT-19">
          <mxGeometry y="55" width="200" height="26" as="geometry" />
        </mxCell>
        <mxCell id="A1a8XFo02_XYmCqBBSiT-28" value="- Anschrift: String" style="text;strokeColor=none;fillColor=none;align=left;verticalAlign=top;spacingLeft=4;spacingRight=4;overflow=hidden;rotatable=0;points=[[0,0.5],[1,0.5]];portConstraint=eastwest;whiteSpace=wrap;html=1;labelBackgroundColor=none;" vertex="1" parent="A1a8XFo02_XYmCqBBSiT-19">
          <mxGeometry y="81" width="200" height="26" as="geometry" />
        </mxCell>
        <mxCell id="A1a8XFo02_XYmCqBBSiT-37" value="- Geburtsdatum: Date" style="text;strokeColor=none;fillColor=none;align=left;verticalAlign=top;spacingLeft=4;spacingRight=4;overflow=hidden;rotatable=0;points=[[0,0.5],[1,0.5]];portConstraint=eastwest;whiteSpace=wrap;html=1;labelBackgroundColor=none;" vertex="1" parent="A1a8XFo02_XYmCqBBSiT-19">
          <mxGeometry y="107" width="200" height="26" as="geometry" />
        </mxCell>
        <mxCell id="A1a8XFo02_XYmCqBBSiT-38" value="- Geburtsort: String" style="text;strokeColor=none;fillColor=none;align=left;verticalAlign=top;spacingLeft=4;spacingRight=4;overflow=hidden;rotatable=0;points=[[0,0.5],[1,0.5]];portConstraint=eastwest;whiteSpace=wrap;html=1;labelBackgroundColor=none;" vertex="1" parent="A1a8XFo02_XYmCqBBSiT-19">
          <mxGeometry y="133" width="200" height="26" as="geometry" />
        </mxCell>
        <mxCell id="A1a8XFo02_XYmCqBBSiT-33" value="- Nationalit채t: String" style="text;strokeColor=none;fillColor=none;align=left;verticalAlign=top;spacingLeft=4;spacingRight=4;overflow=hidden;rotatable=0;points=[[0,0.5],[1,0.5]];portConstraint=eastwest;whiteSpace=wrap;html=1;labelBackgroundColor=none;" vertex="1" parent="A1a8XFo02_XYmCqBBSiT-19">
          <mxGeometry y="159" width="200" height="26" as="geometry" />
        </mxCell>
        <mxCell id="A1a8XFo02_XYmCqBBSiT-32" value="- Logbuchnummer: Long" style="text;strokeColor=none;fillColor=none;align=left;verticalAlign=top;spacingLeft=4;spacingRight=4;overflow=hidden;rotatable=0;points=[[0,0.5],[1,0.5]];portConstraint=eastwest;whiteSpace=wrap;html=1;labelBackgroundColor=none;" vertex="1" parent="A1a8XFo02_XYmCqBBSiT-19">
          <mxGeometry y="185" width="200" height="26" as="geometry" />
        </mxCell>
        <mxCell id="A1a8XFo02_XYmCqBBSiT-30" value="- Begonnen: Date" style="text;strokeColor=none;fillColor=none;align=left;verticalAlign=top;spacingLeft=4;spacingRight=4;overflow=hidden;rotatable=0;points=[[0,0.5],[1,0.5]];portConstraint=eastwest;whiteSpace=wrap;html=1;labelBackgroundColor=none;" vertex="1" parent="A1a8XFo02_XYmCqBBSiT-19">
          <mxGeometry y="211" width="200" height="26" as="geometry" />
        </mxCell>
        <mxCell id="A1a8XFo02_XYmCqBBSiT-31" value="- Beendet: Date" style="text;strokeColor=none;fillColor=none;align=left;verticalAlign=top;spacingLeft=4;spacingRight=4;overflow=hidden;rotatable=0;points=[[0,0.5],[1,0.5]];portConstraint=eastwest;whiteSpace=wrap;html=1;labelBackgroundColor=none;" vertex="1" parent="A1a8XFo02_XYmCqBBSiT-19">
          <mxGeometry y="237" width="200" height="26" as="geometry" />
        </mxCell>
        <mxCell id="A1a8XFo02_XYmCqBBSiT-36" value="- Eintr채ge: List(Log)" style="text;strokeColor=none;fillColor=none;align=left;verticalAlign=top;spacingLeft=4;spacingRight=4;overflow=hidden;rotatable=0;points=[[0,0.5],[1,0.5]];portConstraint=eastwest;whiteSpace=wrap;html=1;labelBackgroundColor=none;" vertex="1" parent="A1a8XFo02_XYmCqBBSiT-19">
          <mxGeometry y="263" width="200" height="26" as="geometry" />
        </mxCell>
        <mxCell id="A1a8XFo02_XYmCqBBSiT-21" value="" style="line;strokeWidth=1;fillColor=none;align=left;verticalAlign=middle;spacingTop=-1;spacingLeft=3;spacingRight=3;rotatable=0;labelPosition=right;points=[];portConstraint=eastwest;labelBackgroundColor=none;" vertex="1" parent="A1a8XFo02_XYmCqBBSiT-19">
          <mxGeometry y="289" width="200" height="8" as="geometry" />
        </mxCell>
        <mxCell id="A1a8XFo02_XYmCqBBSiT-128" value="+ Logbuch(alle attribute)" style="text;strokeColor=none;fillColor=none;align=left;verticalAlign=top;spacingLeft=4;spacingRight=4;overflow=hidden;rotatable=0;points=[[0,0.5],[1,0.5]];portConstraint=eastwest;whiteSpace=wrap;html=1;labelBackgroundColor=none;" vertex="1" parent="A1a8XFo02_XYmCqBBSiT-19">
          <mxGeometry y="297" width="200" height="26" as="geometry" />
        </mxCell>
        <mxCell id="A1a8XFo02_XYmCqBBSiT-126" value="+ drucken(Eintr채ge)" style="text;strokeColor=none;fillColor=none;align=left;verticalAlign=top;spacingLeft=4;spacingRight=4;overflow=hidden;rotatable=0;points=[[0,0.5],[1,0.5]];portConstraint=eastwest;whiteSpace=wrap;html=1;labelBackgroundColor=none;" vertex="1" parent="A1a8XFo02_XYmCqBBSiT-19">
          <mxGeometry y="323" width="200" height="26" as="geometry" />
        </mxCell>
        <mxCell id="A1a8XFo02_XYmCqBBSiT-129" value="+ get_eintraege(): Eintr채ge" style="text;strokeColor=none;fillColor=none;align=left;verticalAlign=top;spacingLeft=4;spacingRight=4;overflow=hidden;rotatable=0;points=[[0,0.5],[1,0.5]];portConstraint=eastwest;whiteSpace=wrap;html=1;labelBackgroundColor=none;" vertex="1" parent="A1a8XFo02_XYmCqBBSiT-19">
          <mxGeometry y="349" width="200" height="26" as="geometry" />
        </mxCell>
        <mxCell id="A1a8XFo02_XYmCqBBSiT-22" value="+ set_eintrag(Log-attribute): Log" style="text;strokeColor=none;fillColor=none;align=left;verticalAlign=top;spacingLeft=4;spacingRight=4;overflow=hidden;rotatable=0;points=[[0,0.5],[1,0.5]];portConstraint=eastwest;whiteSpace=wrap;html=1;labelBackgroundColor=none;" vertex="1" parent="A1a8XFo02_XYmCqBBSiT-19">
          <mxGeometry y="375" width="200" height="26" as="geometry" />
        </mxCell>
        <mxCell id="A1a8XFo02_XYmCqBBSiT-39" value="Log" style="swimlane;fontStyle=1;align=center;verticalAlign=top;childLayout=stackLayout;horizontal=1;startSize=26;horizontalStack=0;resizeParent=1;resizeParentMax=0;resizeLast=0;collapsible=1;marginBottom=0;whiteSpace=wrap;html=1;labelBackgroundColor=none;" vertex="1" parent="1">
          <mxGeometry x="248" y="169" width="240" height="442" as="geometry" />
        </mxCell>
        <mxCell id="A1a8XFo02_XYmCqBBSiT-40" value="+ Datum: Date" style="text;strokeColor=none;fillColor=none;align=left;verticalAlign=top;spacingLeft=4;spacingRight=4;overflow=hidden;rotatable=0;points=[[0,0.5],[1,0.5]];portConstraint=eastwest;whiteSpace=wrap;html=1;labelBackgroundColor=none;" vertex="1" parent="A1a8XFo02_XYmCqBBSiT-39">
          <mxGeometry y="26" width="240" height="26" as="geometry" />
        </mxCell>
        <mxCell id="A1a8XFo02_XYmCqBBSiT-43" value="+ Kennzeichen: String" style="text;strokeColor=none;fillColor=none;align=left;verticalAlign=top;spacingLeft=4;spacingRight=4;overflow=hidden;rotatable=0;points=[[0,0.5],[1,0.5]];portConstraint=eastwest;whiteSpace=wrap;html=1;labelBackgroundColor=none;" vertex="1" parent="A1a8XFo02_XYmCqBBSiT-39">
          <mxGeometry y="52" width="240" height="26" as="geometry" />
        </mxCell>
        <mxCell id="A1a8XFo02_XYmCqBBSiT-46" value="+ Flugzeugtyp: String" style="text;strokeColor=none;fillColor=none;align=left;verticalAlign=top;spacingLeft=4;spacingRight=4;overflow=hidden;rotatable=0;points=[[0,0.5],[1,0.5]];portConstraint=eastwest;whiteSpace=wrap;html=1;labelBackgroundColor=none;" vertex="1" parent="A1a8XFo02_XYmCqBBSiT-39">
          <mxGeometry y="78" width="240" height="26" as="geometry" />
        </mxCell>
        <mxCell id="A1a8XFo02_XYmCqBBSiT-47" value="+ Abflugsort: String" style="text;strokeColor=none;fillColor=none;align=left;verticalAlign=top;spacingLeft=4;spacingRight=4;overflow=hidden;rotatable=0;points=[[0,0.5],[1,0.5]];portConstraint=eastwest;whiteSpace=wrap;html=1;labelBackgroundColor=none;" vertex="1" parent="A1a8XFo02_XYmCqBBSiT-39">
          <mxGeometry y="104" width="240" height="26" as="geometry" />
        </mxCell>
        <mxCell id="A1a8XFo02_XYmCqBBSiT-49" value="+ Ankunftsort: String" style="text;strokeColor=none;fillColor=none;align=left;verticalAlign=top;spacingLeft=4;spacingRight=4;overflow=hidden;rotatable=0;points=[[0,0.5],[1,0.5]];portConstraint=eastwest;whiteSpace=wrap;html=1;labelBackgroundColor=none;" vertex="1" parent="A1a8XFo02_XYmCqBBSiT-39">
          <mxGeometry y="130" width="240" height="26" as="geometry" />
        </mxCell>
        <mxCell id="A1a8XFo02_XYmCqBBSiT-50" value="+ Abflugszeit: Date" style="text;strokeColor=none;fillColor=none;align=left;verticalAlign=top;spacingLeft=4;spacingRight=4;overflow=hidden;rotatable=0;points=[[0,0.5],[1,0.5]];portConstraint=eastwest;whiteSpace=wrap;html=1;labelBackgroundColor=none;" vertex="1" parent="A1a8XFo02_XYmCqBBSiT-39">
          <mxGeometry y="156" width="240" height="26" as="geometry" />
        </mxCell>
        <mxCell id="A1a8XFo02_XYmCqBBSiT-51" value="+ Ankunftszeit: Date" style="text;strokeColor=none;fillColor=none;align=left;verticalAlign=top;spacingLeft=4;spacingRight=4;overflow=hidden;rotatable=0;points=[[0,0.5],[1,0.5]];portConstraint=eastwest;whiteSpace=wrap;html=1;labelBackgroundColor=none;" vertex="1" parent="A1a8XFo02_XYmCqBBSiT-39">
          <mxGeometry y="182" width="240" height="26" as="geometry" />
        </mxCell>
        <mxCell id="A1a8XFo02_XYmCqBBSiT-52" value="+ Flugzeit SEP: Long" style="text;strokeColor=none;fillColor=none;align=left;verticalAlign=top;spacingLeft=4;spacingRight=4;overflow=hidden;rotatable=0;points=[[0,0.5],[1,0.5]];portConstraint=eastwest;whiteSpace=wrap;html=1;labelBackgroundColor=none;" vertex="1" parent="A1a8XFo02_XYmCqBBSiT-39">
          <mxGeometry y="208" width="240" height="26" as="geometry" />
        </mxCell>
        <mxCell id="A1a8XFo02_XYmCqBBSiT-56" value="+ Flugzeit UL: Long" style="text;strokeColor=none;fillColor=none;align=left;verticalAlign=top;spacingLeft=4;spacingRight=4;overflow=hidden;rotatable=0;points=[[0,0.5],[1,0.5]];portConstraint=eastwest;whiteSpace=wrap;html=1;labelBackgroundColor=none;" vertex="1" parent="A1a8XFo02_XYmCqBBSiT-39">
          <mxGeometry y="234" width="240" height="26" as="geometry" />
        </mxCell>
        <mxCell id="A1a8XFo02_XYmCqBBSiT-55" value="+ Landungen: Integer" style="text;strokeColor=none;fillColor=none;align=left;verticalAlign=top;spacingLeft=4;spacingRight=4;overflow=hidden;rotatable=0;points=[[0,0.5],[1,0.5]];portConstraint=eastwest;whiteSpace=wrap;html=1;labelBackgroundColor=none;" vertex="1" parent="A1a8XFo02_XYmCqBBSiT-39">
          <mxGeometry y="260" width="240" height="26" as="geometry" />
        </mxCell>
        <mxCell id="A1a8XFo02_XYmCqBBSiT-54" value="+ PIC: String" style="text;strokeColor=none;fillColor=none;align=left;verticalAlign=top;spacingLeft=4;spacingRight=4;overflow=hidden;rotatable=0;points=[[0,0.5],[1,0.5]];portConstraint=eastwest;whiteSpace=wrap;html=1;labelBackgroundColor=none;" vertex="1" parent="A1a8XFo02_XYmCqBBSiT-39">
          <mxGeometry y="286" width="240" height="26" as="geometry" />
        </mxCell>
        <mxCell id="A1a8XFo02_XYmCqBBSiT-53" value="+ Operational Condition Night: Date" style="text;strokeColor=none;fillColor=none;align=left;verticalAlign=top;spacingLeft=4;spacingRight=4;overflow=hidden;rotatable=0;points=[[0,0.5],[1,0.5]];portConstraint=eastwest;whiteSpace=wrap;html=1;labelBackgroundColor=none;" vertex="1" parent="A1a8XFo02_XYmCqBBSiT-39">
          <mxGeometry y="312" width="240" height="26" as="geometry" />
        </mxCell>
        <mxCell id="A1a8XFo02_XYmCqBBSiT-48" value="+ Operational Condition IFR: Date" style="text;strokeColor=none;fillColor=none;align=left;verticalAlign=top;spacingLeft=4;spacingRight=4;overflow=hidden;rotatable=0;points=[[0,0.5],[1,0.5]];portConstraint=eastwest;whiteSpace=wrap;html=1;labelBackgroundColor=none;" vertex="1" parent="A1a8XFo02_XYmCqBBSiT-39">
          <mxGeometry y="338" width="240" height="26" as="geometry" />
        </mxCell>
        <mxCell id="A1a8XFo02_XYmCqBBSiT-44" value="+ Flugzeit PIC: Date" style="text;strokeColor=none;fillColor=none;align=left;verticalAlign=top;spacingLeft=4;spacingRight=4;overflow=hidden;rotatable=0;points=[[0,0.5],[1,0.5]];portConstraint=eastwest;whiteSpace=wrap;html=1;labelBackgroundColor=none;" vertex="1" parent="A1a8XFo02_XYmCqBBSiT-39">
          <mxGeometry y="364" width="240" height="26" as="geometry" />
        </mxCell>
        <mxCell id="A1a8XFo02_XYmCqBBSiT-57" value="+ Flugzeit Dual: Date" style="text;strokeColor=none;fillColor=none;align=left;verticalAlign=top;spacingLeft=4;spacingRight=4;overflow=hidden;rotatable=0;points=[[0,0.5],[1,0.5]];portConstraint=eastwest;whiteSpace=wrap;html=1;labelBackgroundColor=none;" vertex="1" parent="A1a8XFo02_XYmCqBBSiT-39">
          <mxGeometry y="390" width="240" height="26" as="geometry" />
        </mxCell>
        <mxCell id="A1a8XFo02_XYmCqBBSiT-45" value="+ Flugzeit Fi: Date" style="text;strokeColor=none;fillColor=none;align=left;verticalAlign=top;spacingLeft=4;spacingRight=4;overflow=hidden;rotatable=0;points=[[0,0.5],[1,0.5]];portConstraint=eastwest;whiteSpace=wrap;html=1;labelBackgroundColor=none;" vertex="1" parent="A1a8XFo02_XYmCqBBSiT-39">
          <mxGeometry y="416" width="240" height="26" as="geometry" />
        </mxCell>
        <mxCell id="A1a8XFo02_XYmCqBBSiT-58" value="Berechtigung" style="swimlane;fontStyle=1;align=center;verticalAlign=top;childLayout=stackLayout;horizontal=1;startSize=26;horizontalStack=0;resizeParent=1;resizeParentMax=0;resizeLast=0;collapsible=1;marginBottom=0;whiteSpace=wrap;html=1;labelBackgroundColor=none;" vertex="1" parent="1">
          <mxGeometry x="986" y="791" width="160" height="130" as="geometry">
            <mxRectangle x="976" y="528" width="112" height="26" as="alternateBounds" />
          </mxGeometry>
        </mxCell>
        <mxCell id="A1a8XFo02_XYmCqBBSiT-59" value="+ Name: String" style="text;strokeColor=none;fillColor=none;align=left;verticalAlign=top;spacingLeft=4;spacingRight=4;overflow=hidden;rotatable=0;points=[[0,0.5],[1,0.5]];portConstraint=eastwest;whiteSpace=wrap;html=1;labelBackgroundColor=none;" vertex="1" parent="A1a8XFo02_XYmCqBBSiT-58">
          <mxGeometry y="26" width="160" height="26" as="geometry" />
        </mxCell>
        <mxCell id="A1a8XFo02_XYmCqBBSiT-63" value="+ Pr체fung am: Date" style="text;strokeColor=none;fillColor=none;align=left;verticalAlign=top;spacingLeft=4;spacingRight=4;overflow=hidden;rotatable=0;points=[[0,0.5],[1,0.5]];portConstraint=eastwest;whiteSpace=wrap;html=1;labelBackgroundColor=none;" vertex="1" parent="A1a8XFo02_XYmCqBBSiT-58">
          <mxGeometry y="52" width="160" height="26" as="geometry" />
        </mxCell>
        <mxCell id="A1a8XFo02_XYmCqBBSiT-64" value="+ G체ltig bis: Date" style="text;strokeColor=none;fillColor=none;align=left;verticalAlign=top;spacingLeft=4;spacingRight=4;overflow=hidden;rotatable=0;points=[[0,0.5],[1,0.5]];portConstraint=eastwest;whiteSpace=wrap;html=1;labelBackgroundColor=none;" vertex="1" parent="A1a8XFo02_XYmCqBBSiT-58">
          <mxGeometry y="78" width="160" height="26" as="geometry" />
        </mxCell>
        <mxCell id="A1a8XFo02_XYmCqBBSiT-62" value="+ Pr체fer: String" style="text;strokeColor=none;fillColor=none;align=left;verticalAlign=top;spacingLeft=4;spacingRight=4;overflow=hidden;rotatable=0;points=[[0,0.5],[1,0.5]];portConstraint=eastwest;whiteSpace=wrap;html=1;labelBackgroundColor=none;" vertex="1" parent="A1a8XFo02_XYmCqBBSiT-58">
          <mxGeometry y="104" width="160" height="26" as="geometry" />
        </mxCell>
        <mxCell id="A1a8XFo02_XYmCqBBSiT-65" value="Lizenz" style="swimlane;fontStyle=1;align=center;verticalAlign=top;childLayout=stackLayout;horizontal=1;startSize=26;horizontalStack=0;resizeParent=1;resizeParentMax=0;resizeLast=0;collapsible=1;marginBottom=0;whiteSpace=wrap;html=1;labelBackgroundColor=none;" vertex="1" parent="1">
          <mxGeometry x="1176" y="683" width="160" height="130" as="geometry">
            <mxRectangle x="1176" y="528" width="72" height="26" as="alternateBounds" />
          </mxGeometry>
        </mxCell>
        <mxCell id="A1a8XFo02_XYmCqBBSiT-66" value="+ Art: String" style="text;strokeColor=none;fillColor=none;align=left;verticalAlign=top;spacingLeft=4;spacingRight=4;overflow=hidden;rotatable=0;points=[[0,0.5],[1,0.5]];portConstraint=eastwest;whiteSpace=wrap;html=1;labelBackgroundColor=none;" vertex="1" parent="A1a8XFo02_XYmCqBBSiT-65">
          <mxGeometry y="26" width="160" height="26" as="geometry" />
        </mxCell>
        <mxCell id="A1a8XFo02_XYmCqBBSiT-67" value="+ Nummer: Long" style="text;strokeColor=none;fillColor=none;align=left;verticalAlign=top;spacingLeft=4;spacingRight=4;overflow=hidden;rotatable=0;points=[[0,0.5],[1,0.5]];portConstraint=eastwest;whiteSpace=wrap;html=1;labelBackgroundColor=none;" vertex="1" parent="A1a8XFo02_XYmCqBBSiT-65">
          <mxGeometry y="52" width="160" height="26" as="geometry" />
        </mxCell>
        <mxCell id="A1a8XFo02_XYmCqBBSiT-68" value="+ Ausstelldatum: Date" style="text;strokeColor=none;fillColor=none;align=left;verticalAlign=top;spacingLeft=4;spacingRight=4;overflow=hidden;rotatable=0;points=[[0,0.5],[1,0.5]];portConstraint=eastwest;whiteSpace=wrap;html=1;labelBackgroundColor=none;" vertex="1" parent="A1a8XFo02_XYmCqBBSiT-65">
          <mxGeometry y="78" width="160" height="26" as="geometry" />
        </mxCell>
        <mxCell id="A1a8XFo02_XYmCqBBSiT-69" value="+ Beh철rde: String" style="text;strokeColor=none;fillColor=none;align=left;verticalAlign=top;spacingLeft=4;spacingRight=4;overflow=hidden;rotatable=0;points=[[0,0.5],[1,0.5]];portConstraint=eastwest;whiteSpace=wrap;html=1;labelBackgroundColor=none;" vertex="1" parent="A1a8XFo02_XYmCqBBSiT-65">
          <mxGeometry y="104" width="160" height="26" as="geometry" />
        </mxCell>
        <mxCell id="A1a8XFo02_XYmCqBBSiT-123" style="edgeStyle=orthogonalEdgeStyle;orthogonalLoop=1;jettySize=auto;html=1;startArrow=diamondThin;startFill=1;endArrow=diamondThin;endFill=0;strokeWidth=2;endSize=10;startSize=10;curved=1;" edge="1" parent="1" source="A1a8XFo02_XYmCqBBSiT-72" target="A1a8XFo02_XYmCqBBSiT-58">
          <mxGeometry relative="1" as="geometry">
            <mxPoint x="1140" y="631" as="sourcePoint" />
            <Array as="points">
              <mxPoint x="1106" y="644" />
              <mxPoint x="1106" y="644" />
            </Array>
          </mxGeometry>
        </mxCell>
        <mxCell id="A1a8XFo02_XYmCqBBSiT-72" value="Benutzer" style="swimlane;fontStyle=1;align=center;verticalAlign=top;childLayout=stackLayout;horizontal=1;startSize=26;horizontalStack=0;resizeParent=1;resizeParentMax=0;resizeLast=0;collapsible=1;marginBottom=0;whiteSpace=wrap;html=1;labelBackgroundColor=none;" vertex="1" parent="1">
          <mxGeometry x="976" y="117" width="360" height="502" as="geometry" />
        </mxCell>
        <mxCell id="A1a8XFo02_XYmCqBBSiT-83" value="&lt;div&gt;- Vorname: String&lt;/div&gt;&lt;div&gt;&lt;br&gt;&lt;/div&gt;" style="text;strokeColor=none;fillColor=none;align=left;verticalAlign=top;spacingLeft=4;spacingRight=4;overflow=hidden;rotatable=0;points=[[0,0.5],[1,0.5]];portConstraint=eastwest;whiteSpace=wrap;html=1;labelBackgroundColor=none;" vertex="1" parent="A1a8XFo02_XYmCqBBSiT-72">
          <mxGeometry y="26" width="360" height="26" as="geometry" />
        </mxCell>
        <mxCell id="A1a8XFo02_XYmCqBBSiT-84" value="- Nachname: String" style="text;strokeColor=none;fillColor=none;align=left;verticalAlign=top;spacingLeft=4;spacingRight=4;overflow=hidden;rotatable=0;points=[[0,0.5],[1,0.5]];portConstraint=eastwest;whiteSpace=wrap;html=1;labelBackgroundColor=none;" vertex="1" parent="A1a8XFo02_XYmCqBBSiT-72">
          <mxGeometry y="52" width="360" height="26" as="geometry" />
        </mxCell>
        <mxCell id="A1a8XFo02_XYmCqBBSiT-87" value="- Geburtsort: String" style="text;strokeColor=none;fillColor=none;align=left;verticalAlign=top;spacingLeft=4;spacingRight=4;overflow=hidden;rotatable=0;points=[[0,0.5],[1,0.5]];portConstraint=eastwest;whiteSpace=wrap;html=1;labelBackgroundColor=none;" vertex="1" parent="A1a8XFo02_XYmCqBBSiT-72">
          <mxGeometry y="78" width="360" height="26" as="geometry" />
        </mxCell>
        <mxCell id="A1a8XFo02_XYmCqBBSiT-86" value="- Geburtsdatum: Date" style="text;strokeColor=none;fillColor=none;align=left;verticalAlign=top;spacingLeft=4;spacingRight=4;overflow=hidden;rotatable=0;points=[[0,0.5],[1,0.5]];portConstraint=eastwest;whiteSpace=wrap;html=1;labelBackgroundColor=none;" vertex="1" parent="A1a8XFo02_XYmCqBBSiT-72">
          <mxGeometry y="104" width="360" height="26" as="geometry" />
        </mxCell>
        <mxCell id="A1a8XFo02_XYmCqBBSiT-85" value="- Anschrift: String" style="text;strokeColor=none;fillColor=none;align=left;verticalAlign=top;spacingLeft=4;spacingRight=4;overflow=hidden;rotatable=0;points=[[0,0.5],[1,0.5]];portConstraint=eastwest;whiteSpace=wrap;html=1;labelBackgroundColor=none;" vertex="1" parent="A1a8XFo02_XYmCqBBSiT-72">
          <mxGeometry y="130" width="360" height="26" as="geometry" />
        </mxCell>
        <mxCell id="A1a8XFo02_XYmCqBBSiT-88" value="- Nationalit채t: String" style="text;strokeColor=none;fillColor=none;align=left;verticalAlign=top;spacingLeft=4;spacingRight=4;overflow=hidden;rotatable=0;points=[[0,0.5],[1,0.5]];portConstraint=eastwest;whiteSpace=wrap;html=1;labelBackgroundColor=none;" vertex="1" parent="A1a8XFo02_XYmCqBBSiT-72">
          <mxGeometry y="156" width="360" height="26" as="geometry" />
        </mxCell>
        <mxCell id="A1a8XFo02_XYmCqBBSiT-77" value="- Lizenzen: List(Lizenz)" style="text;strokeColor=none;fillColor=none;align=left;verticalAlign=top;spacingLeft=4;spacingRight=4;overflow=hidden;rotatable=0;points=[[0,0.5],[1,0.5]];portConstraint=eastwest;whiteSpace=wrap;html=1;labelBackgroundColor=none;" vertex="1" parent="A1a8XFo02_XYmCqBBSiT-72">
          <mxGeometry y="182" width="360" height="26" as="geometry" />
        </mxCell>
        <mxCell id="A1a8XFo02_XYmCqBBSiT-78" value="- Berechtigungen: List(Brechtigung)" style="text;strokeColor=none;fillColor=none;align=left;verticalAlign=top;spacingLeft=4;spacingRight=4;overflow=hidden;rotatable=0;points=[[0,0.5],[1,0.5]];portConstraint=eastwest;whiteSpace=wrap;html=1;labelBackgroundColor=none;" vertex="1" parent="A1a8XFo02_XYmCqBBSiT-72">
          <mxGeometry y="208" width="360" height="26" as="geometry" />
        </mxCell>
        <mxCell id="A1a8XFo02_XYmCqBBSiT-89" value="- Logb체cher: List(Logbuch)" style="text;strokeColor=none;fillColor=none;align=left;verticalAlign=top;spacingLeft=4;spacingRight=4;overflow=hidden;rotatable=0;points=[[0,0.5],[1,0.5]];portConstraint=eastwest;whiteSpace=wrap;html=1;labelBackgroundColor=none;" vertex="1" parent="A1a8XFo02_XYmCqBBSiT-72">
          <mxGeometry y="234" width="360" height="26" as="geometry" />
        </mxCell>
        <mxCell id="A1a8XFo02_XYmCqBBSiT-74" value="" style="line;strokeWidth=1;fillColor=none;align=left;verticalAlign=middle;spacingTop=-1;spacingLeft=3;spacingRight=3;rotatable=0;labelPosition=right;points=[];portConstraint=eastwest;labelBackgroundColor=none;" vertex="1" parent="A1a8XFo02_XYmCqBBSiT-72">
          <mxGeometry y="260" width="360" height="8" as="geometry" />
        </mxCell>
        <mxCell id="A1a8XFo02_XYmCqBBSiT-75" value="+ lizenz_hinzuf체gen(Lizenz-attribute): Lizenz" style="text;strokeColor=none;fillColor=none;align=left;verticalAlign=top;spacingLeft=4;spacingRight=4;overflow=hidden;rotatable=0;points=[[0,0.5],[1,0.5]];portConstraint=eastwest;whiteSpace=wrap;html=1;labelBackgroundColor=none;" vertex="1" parent="A1a8XFo02_XYmCqBBSiT-72">
          <mxGeometry y="268" width="360" height="26" as="geometry" />
        </mxCell>
        <mxCell id="A1a8XFo02_XYmCqBBSiT-91" value="+ berechtigung_hinzuf체gen(berechtigung-attribute): Berechtigung" style="text;strokeColor=none;fillColor=none;align=left;verticalAlign=top;spacingLeft=4;spacingRight=4;overflow=hidden;rotatable=0;points=[[0,0.5],[1,0.5]];portConstraint=eastwest;whiteSpace=wrap;html=1;labelBackgroundColor=none;" vertex="1" parent="A1a8XFo02_XYmCqBBSiT-72">
          <mxGeometry y="294" width="360" height="26" as="geometry" />
        </mxCell>
        <mxCell id="A1a8XFo02_XYmCqBBSiT-124" value="+ logbuch_hinzuf체gen(Logbuch-attribute): Logbuch" style="text;strokeColor=none;fillColor=none;align=left;verticalAlign=top;spacingLeft=4;spacingRight=4;overflow=hidden;rotatable=0;points=[[0,0.5],[1,0.5]];portConstraint=eastwest;whiteSpace=wrap;html=1;labelBackgroundColor=none;" vertex="1" parent="A1a8XFo02_XYmCqBBSiT-72">
          <mxGeometry y="320" width="360" height="26" as="geometry" />
        </mxCell>
        <mxCell id="A1a8XFo02_XYmCqBBSiT-131" value="+ adresse_aendern(adresse: String)" style="text;strokeColor=none;fillColor=none;align=left;verticalAlign=top;spacingLeft=4;spacingRight=4;overflow=hidden;rotatable=0;points=[[0,0.5],[1,0.5]];portConstraint=eastwest;whiteSpace=wrap;html=1;labelBackgroundColor=none;" vertex="1" parent="A1a8XFo02_XYmCqBBSiT-72">
          <mxGeometry y="346" width="360" height="26" as="geometry" />
        </mxCell>
        <mxCell id="A1a8XFo02_XYmCqBBSiT-130" value="+ get_adresse(): Adresse" style="text;strokeColor=none;fillColor=none;align=left;verticalAlign=top;spacingLeft=4;spacingRight=4;overflow=hidden;rotatable=0;points=[[0,0.5],[1,0.5]];portConstraint=eastwest;whiteSpace=wrap;html=1;labelBackgroundColor=none;" vertex="1" parent="A1a8XFo02_XYmCqBBSiT-72">
          <mxGeometry y="372" width="360" height="26" as="geometry" />
        </mxCell>
        <mxCell id="A1a8XFo02_XYmCqBBSiT-134" value="+ get_lizenzen(): Lizenzen" style="text;strokeColor=none;fillColor=none;align=left;verticalAlign=top;spacingLeft=4;spacingRight=4;overflow=hidden;rotatable=0;points=[[0,0.5],[1,0.5]];portConstraint=eastwest;whiteSpace=wrap;html=1;" vertex="1" parent="A1a8XFo02_XYmCqBBSiT-72">
          <mxGeometry y="398" width="360" height="26" as="geometry" />
        </mxCell>
        <mxCell id="A1a8XFo02_XYmCqBBSiT-135" value="+ delete_lizenz(Lizenz)" style="text;strokeColor=none;fillColor=none;align=left;verticalAlign=top;spacingLeft=4;spacingRight=4;overflow=hidden;rotatable=0;points=[[0,0.5],[1,0.5]];portConstraint=eastwest;whiteSpace=wrap;html=1;labelBackgroundColor=none;" vertex="1" parent="A1a8XFo02_XYmCqBBSiT-72">
          <mxGeometry y="424" width="360" height="26" as="geometry" />
        </mxCell>
        <mxCell id="A1a8XFo02_XYmCqBBSiT-133" value="+ get_berechtigungen(): Berechtigungen" style="text;strokeColor=none;fillColor=none;align=left;verticalAlign=top;spacingLeft=4;spacingRight=4;overflow=hidden;rotatable=0;points=[[0,0.5],[1,0.5]];portConstraint=eastwest;whiteSpace=wrap;html=1;labelBackgroundColor=none;" vertex="1" parent="A1a8XFo02_XYmCqBBSiT-72">
          <mxGeometry y="450" width="360" height="26" as="geometry" />
        </mxCell>
        <mxCell id="A1a8XFo02_XYmCqBBSiT-136" value="+ delete_berechtigung(Lizenz)" style="text;strokeColor=none;fillColor=none;align=left;verticalAlign=top;spacingLeft=4;spacingRight=4;overflow=hidden;rotatable=0;points=[[0,0.5],[1,0.5]];portConstraint=eastwest;whiteSpace=wrap;html=1;labelBackgroundColor=none;" vertex="1" parent="A1a8XFo02_XYmCqBBSiT-72">
          <mxGeometry y="476" width="360" height="26" as="geometry" />
        </mxCell>
        <mxCell id="A1a8XFo02_XYmCqBBSiT-94" value="&lt;div&gt;n&lt;/div&gt;" style="text;html=1;strokeColor=none;fillColor=none;align=center;verticalAlign=middle;whiteSpace=wrap;rounded=0;" vertex="1" parent="1">
          <mxGeometry x="481" y="313" width="60" height="30" as="geometry" />
        </mxCell>
        <mxCell id="A1a8XFo02_XYmCqBBSiT-96" value="&lt;div&gt;n&lt;/div&gt;" style="text;html=1;strokeColor=none;fillColor=none;align=center;verticalAlign=middle;whiteSpace=wrap;rounded=0;" vertex="1" parent="1">
          <mxGeometry x="1058" y="768" width="60" height="30" as="geometry" />
        </mxCell>
        <mxCell id="A1a8XFo02_XYmCqBBSiT-97" value="&lt;div&gt;n&lt;/div&gt;" style="text;html=1;strokeColor=none;fillColor=none;align=center;verticalAlign=middle;whiteSpace=wrap;rounded=0;" vertex="1" parent="1">
          <mxGeometry x="1223" y="645" width="60" height="30" as="geometry" />
        </mxCell>
        <mxCell id="A1a8XFo02_XYmCqBBSiT-100" value="&lt;div&gt;1&lt;/div&gt;" style="text;html=1;strokeColor=none;fillColor=none;align=center;verticalAlign=middle;whiteSpace=wrap;rounded=0;" vertex="1" parent="1">
          <mxGeometry x="607.62" y="319" width="60" height="30" as="geometry" />
        </mxCell>
        <mxCell id="A1a8XFo02_XYmCqBBSiT-101" value="&lt;div&gt;1&lt;/div&gt;" style="text;html=1;strokeColor=none;fillColor=none;align=center;verticalAlign=middle;whiteSpace=wrap;rounded=0;" vertex="1" parent="1">
          <mxGeometry x="1058" y="619" width="60" height="30" as="geometry" />
        </mxCell>
        <mxCell id="A1a8XFo02_XYmCqBBSiT-102" value="&lt;div&gt;1&lt;/div&gt;" style="text;html=1;strokeColor=none;fillColor=none;align=center;verticalAlign=middle;whiteSpace=wrap;rounded=0;" vertex="1" parent="1">
          <mxGeometry x="1208" y="615" width="60" height="30" as="geometry" />
        </mxCell>
        <mxCell id="A1a8XFo02_XYmCqBBSiT-113" value="&lt;div&gt;n&lt;/div&gt;" style="text;html=1;strokeColor=none;fillColor=none;align=center;verticalAlign=middle;whiteSpace=wrap;rounded=0;" vertex="1" parent="1">
          <mxGeometry x="834" y="229" width="60" height="30" as="geometry" />
        </mxCell>
        <mxCell id="A1a8XFo02_XYmCqBBSiT-115" value="&lt;div&gt;1&lt;/div&gt;" style="text;html=1;strokeColor=none;fillColor=none;align=center;verticalAlign=middle;whiteSpace=wrap;rounded=0;" vertex="1" parent="1">
          <mxGeometry x="934" y="229" width="60" height="30" as="geometry" />
        </mxCell>
        <mxCell id="A1a8XFo02_XYmCqBBSiT-121" style="edgeStyle=orthogonalEdgeStyle;orthogonalLoop=1;jettySize=auto;html=1;exitX=1;exitY=0.5;exitDx=0;exitDy=0;endArrow=diamondThin;endFill=1;entryX=0;entryY=0.5;entryDx=0;entryDy=0;strokeWidth=2;targetPerimeterSpacing=0;jumpStyle=line;fontSize=14;startArrow=diamondThin;startFill=0;rounded=0;endSize=10;startSize=10;" edge="1" parent="1" source="A1a8XFo02_XYmCqBBSiT-51" target="A1a8XFo02_XYmCqBBSiT-31">
          <mxGeometry relative="1" as="geometry" />
        </mxCell>
        <mxCell id="A1a8XFo02_XYmCqBBSiT-122" style="edgeStyle=orthogonalEdgeStyle;rounded=1;orthogonalLoop=1;jettySize=auto;html=1;endArrow=diamondThin;endFill=1;startArrow=diamond;startFill=0;strokeWidth=2;endSize=10;startSize=10;entryX=0;entryY=0.5;entryDx=0;entryDy=0;" edge="1" parent="1" source="A1a8XFo02_XYmCqBBSiT-38" target="A1a8XFo02_XYmCqBBSiT-85">
          <mxGeometry relative="1" as="geometry" />
        </mxCell>
      </root>
    </mxGraphModel>
  </diagram>
</mxfile>
